<?xml version="1.0" encoding="UTF-8" standalone="no"?><svg xmlns:svg="http://www.w3.org/2000/svg" xmlns="http://www.w3.org/2000/svg" xmlns:xlink="http://www.w3.org/1999/xlink" version="1.0" width="64px" height="64px" viewBox="0 0 128 128" xml:space="preserve"><rect x="0" y="0" width="100%" height="100%" fill="#FFFFFF" /><g><path d="M116.3 60.18a52.28 52.28 0 0 0-12.64-30.45l8.06-8.06a63.6 63.6 0 0 1 15.97 38.5h-11.4z" fill="#2974d8"/><path d="M116.3 60.18a52.28 52.28 0 0 0-12.64-30.45l8.06-8.06a63.6 63.6 0 0 1 15.97 38.5h-11.4z" fill="#acc9f0" transform="rotate(45, 64, 64)"/><path d="M116.3 60.18a52.28 52.28 0 0 0-12.64-30.45l8.06-8.06a63.6 63.6 0 0 1 15.97 38.5h-11.4z" fill="#acc9f0" transform="rotate(90, 64, 64)"/><path d="M116.3 60.18a52.28 52.28 0 0 0-12.64-30.45l8.06-8.06a63.6 63.6 0 0 1 15.97 38.5h-11.4z" fill="#acc9f0" transform="rotate(135, 64, 64)"/><path d="M116.3 60.18a52.28 52.28 0 0 0-12.64-30.45l8.06-8.06a63.6 63.6 0 0 1 15.97 38.5h-11.4z" fill="#acc9f0" transform="rotate(180, 64, 64)"/><path d="M116.3 60.18a52.28 52.28 0 0 0-12.64-30.45l8.06-8.06a63.6 63.6 0 0 1 15.97 38.5h-11.4z" fill="#acc9f0" transform="rotate(225, 64, 64)"/><path d="M116.3 60.18a52.28 52.28 0 0 0-12.64-30.45l8.06-8.06a63.6 63.6 0 0 1 15.97 38.5h-11.4z" fill="#acc9f0" transform="rotate(270, 64, 64)"/><path d="M116.3 60.18a52.28 52.28 0 0 0-12.64-30.45l8.06-8.06a63.6 63.6 0 0 1 15.97 38.5h-11.4z" fill="#acc9f0" transform="rotate(315, 64, 64)"/><animateTransform attributeName="transform" type="rotate" values="315 64 64;270 64 64;225 64 64;180 64 64;135 64 64;90 64 64;45 64 64;0 64 64" calcMode="discrete" dur="720ms" repeatCount="indefinite"></animateTransform></g></svg>